<svg width="200" height="67" viewBox="0 0 200 67" fill="none" xmlns="http://www.w3.org/2000/svg">
<path d="M165.609 25.7617V29.5841L174.032 25.7617H165.609ZM180.81 27.4196C179.811 26.6674 178.551 26.1608 177.045 25.9306L165.594 31.1345V46.5929H171.035V39.6236H175.631C177.875 39.6236 179.658 39.0402 180.995 37.8889C182.332 36.7376 182.993 35.0337 182.993 32.7617C183.008 30.3209 182.271 28.5402 180.81 27.4196ZM177.46 34.2661C177.275 34.6192 176.999 34.8801 176.614 35.0337C176.23 35.1872 175.861 35.2946 175.523 35.3407C175.169 35.3867 174.708 35.4174 174.14 35.4174H171.066V30.2135H174.585C175.6 30.2135 176.384 30.413 176.937 30.8122C177.475 31.2113 177.752 31.8867 177.752 32.8385C177.736 33.4218 177.644 33.8977 177.46 34.2661Z" fill="#333333"/>
<path d="M174.032 25.7617L165.609 29.5841V25.7617H174.032Z" fill="#383838"/>
<path d="M174.032 25.7617L165.609 29.5841V25.7617H174.032Z" fill="#00B22D"/>
<path d="M33.7925 12.5C33.7618 12.5 33.7157 12.5 33.6849 12.5C30.6877 12.5 28.0286 13.943 26.3686 16.1689C25.2466 17.6732 24.5703 19.5614 24.5703 21.6031C24.5703 26.6228 28.6435 30.6908 33.6696 30.6908C38.6957 30.6908 42.7842 26.6228 42.7842 21.6031C42.7842 16.614 38.7725 12.5614 33.7925 12.5Z" fill="#FFC300"/>
<path d="M19.2826 23.1367C17.8224 26.0994 17.0078 29.4306 17.0078 32.9613C17.0078 43.3231 24.0936 52.0117 33.6693 54.4985V36.0468C26.1993 36.0468 20.0511 30.3977 19.2826 23.1367Z" fill="#00B22D"/>
<path d="M62.4268 35.1566C61.151 34.5733 58.7071 33.8057 55.0644 32.8386C54.4649 32.6851 54.0499 32.4855 53.8194 32.2553C53.5888 32.025 53.4812 31.6873 53.4812 31.2575C53.4812 30.7048 53.7271 30.275 54.219 29.9526C54.7108 29.6303 55.3871 29.4768 56.2479 29.4768C58.3997 29.4768 59.5371 30.3211 59.6447 32.025H64.8245C64.7938 29.8605 64.056 28.2026 62.6419 27.0513C61.2279 25.9 59.2144 25.332 56.6168 25.332C54.0345 25.332 51.9903 25.9154 50.4686 27.0667C48.9623 28.2333 48.1938 29.7991 48.1938 31.764C48.1938 34.2355 49.5464 35.9702 52.2669 36.9373C53.7271 37.4899 55.4486 38.0272 57.4314 38.5798C58.4612 38.8562 59.1836 39.1478 59.5832 39.4702C59.9829 39.7926 60.1827 40.2377 60.1827 40.8057C60.1827 42.2026 59.1529 42.9088 57.0779 42.9088C54.2805 42.9088 52.8818 41.8035 52.8818 39.6083H47.3945C47.4406 41.9724 48.2706 43.7991 49.9153 45.104C51.5599 46.4088 53.8193 47.0689 56.709 47.0689C59.4449 47.0689 61.6121 46.4548 63.226 45.2114C64.8399 43.968 65.6392 42.3101 65.6392 40.2224C65.6853 37.8583 64.594 36.1698 62.4268 35.1566Z" fill="#333333"/>
<path d="M77.4741 42.4659C75.9832 42.4659 74.7997 41.8979 73.9082 40.7619C73.0167 39.626 72.571 38.1216 72.571 36.2181C72.571 34.2685 73.0167 32.7181 73.9082 31.5514C74.7997 30.3847 75.9832 29.8167 77.4741 29.8167C79.7643 29.8167 81.1322 30.9067 81.6087 33.0865H86.973C86.8039 30.7071 85.8048 28.8036 83.9911 27.376C82.1774 25.9483 80.041 25.2422 77.5971 25.2422C74.4922 25.2422 71.9561 26.2553 70.0041 28.2663C68.0521 30.2926 67.0684 32.9023 67.0684 36.0953C67.0684 39.3036 68.006 41.9286 69.8965 43.9856C71.7871 46.0426 74.3232 47.0711 77.5048 47.0711C81.6241 47.0711 84.4984 45.4286 86.1276 42.1281C86.4965 41.3913 86.7424 40.7926 86.8808 40.3321C87.0037 39.8716 87.0806 39.2422 87.096 38.4439H81.6702C81.2706 41.1303 79.8719 42.4659 77.4741 42.4659Z" fill="#333333"/>
<path d="M100.56 25.7344H95.0579L87.2344 46.5962H92.7984L94.1818 42.7892H101.39L102.743 46.5962H108.369L100.56 25.7344ZM95.396 38.8747L97.7938 31.5831L100.145 38.8747H95.396Z" fill="#333333"/>
<path d="M114.886 25.7461H109.414V46.5926H124.615V41.9106H114.886V25.7461Z" fill="#333333"/>
<path d="M132.147 37.9654H142.46V33.7439H132.147V30.1364H143.429V25.7461H126.736V46.5926H143.705V42.0334H132.147V37.9654Z" fill="#333333"/>
<path d="M148.394 44.8461C149.839 46.1816 151.929 46.8724 154.68 46.9645C151.837 46.9031 149.7 46.197 148.302 44.8461C146.995 43.6027 146.273 41.7606 146.119 39.2891C146.288 41.7606 147.057 43.6027 148.394 44.8461Z" fill="#333333"/>
<path d="M153.928 42.3438C154.204 42.4205 154.512 42.4512 154.85 42.4819C154.512 42.4666 154.204 42.4359 153.928 42.3438Z" fill="#FFC300"/>
<path d="M158.676 39.8398C158.538 40.4846 158.307 41.0219 157.984 41.4363C157.646 41.8508 157.185 42.1425 156.57 42.3113C157.692 41.989 158.399 41.16 158.676 39.8398Z" fill="#333333"/>
<path d="M158.676 39.8392C158.722 39.6243 158.753 39.3941 158.783 39.1484C158.768 39.3941 158.737 39.6243 158.676 39.8392Z" fill="#333333"/>
<path d="M158.83 38.3672C158.83 38.6435 158.814 38.8891 158.799 39.1347C158.814 38.8891 158.814 38.6435 158.83 38.3672Z" fill="#333333"/>
<path d="M151.621 39.1325C151.59 38.8869 151.59 38.626 151.59 38.365V27.7422C151.59 27.8036 151.59 27.865 151.59 27.9264V38.365C151.575 38.6413 151.59 38.8869 151.621 39.1325Z" fill="#333333"/>
<path d="M153.834 42.31C153.219 42.1411 152.743 41.8494 152.42 41.435C152.082 41.0051 151.836 40.4372 151.713 39.7617C151.974 41.1279 152.681 41.9722 153.834 42.31Z" fill="#333333"/>
<path d="M156.479 42.3438C156.202 42.4205 155.895 42.4666 155.557 42.4819C155.879 42.4666 156.202 42.4205 156.479 42.3438Z" fill="#FFC300"/>
<path d="M155.711 46.9637C156.049 46.9484 156.387 46.933 156.71 46.9023C156.387 46.9484 156.064 46.9637 155.711 46.9637Z" fill="#FFC300"/>
<path d="M164.271 39.3008C164.117 41.7569 163.38 43.6144 162.089 44.8578C160.859 46.0398 159.061 46.7306 156.709 46.9148C158.968 46.6999 160.736 46.0245 161.996 44.8578C163.349 43.599 164.102 41.7569 164.271 39.3008Z" fill="#333333"/>
<path d="M164.302 25.7461V38.2571C164.302 38.4413 164.302 38.6255 164.287 38.8097C164.287 38.9785 164.272 39.1474 164.256 39.3163C164.087 41.7724 163.334 43.6299 161.981 44.8733C161.889 44.9654 161.797 45.0421 161.705 45.1189C161.612 45.1956 161.52 45.2724 161.413 45.3492C161.32 45.4259 161.213 45.4873 161.105 45.5641C160.998 45.6255 160.89 45.7022 160.782 45.7636C160.706 45.8097 160.629 45.8557 160.567 45.8864C160.506 45.9171 160.444 45.9478 160.383 45.9785C160.291 46.0246 160.198 46.0706 160.106 46.1013C159.983 46.1474 159.86 46.2088 159.737 46.2549C159.614 46.3009 159.491 46.347 159.353 46.393C159.215 46.4391 159.092 46.4851 158.953 46.5158C158.815 46.5465 158.677 46.5926 158.538 46.6233C158.2 46.7154 157.831 46.7768 157.462 46.8382C157.432 46.8382 157.401 46.8382 157.37 46.8535C157.155 46.8842 156.94 46.9149 156.725 46.9303C156.556 46.9456 156.402 46.961 156.233 46.961C156.064 46.9763 155.895 46.9763 155.726 46.9917C155.541 46.9917 155.357 47.007 155.172 47.007C155.019 47.007 154.865 47.007 154.711 46.9917C154.542 46.9917 154.373 46.9763 154.204 46.961C153.374 46.9149 152.605 46.8075 151.898 46.6233C151.76 46.5926 151.622 46.5465 151.483 46.5158C151.345 46.4698 151.207 46.4237 151.084 46.393C150.945 46.347 150.822 46.3009 150.7 46.2549C150.484 46.1628 150.269 46.0706 150.054 45.9785C149.916 45.9018 149.777 45.825 149.639 45.7483C149.531 45.6869 149.424 45.6101 149.316 45.5487C149.209 45.472 149.101 45.4106 149.009 45.3338C148.917 45.257 148.809 45.1803 148.717 45.1035C148.625 45.0268 148.532 44.95 148.44 44.8579C147.103 43.6145 146.334 41.7724 146.165 39.3009C146.15 39.1321 146.15 38.9632 146.135 38.7943C146.135 38.6101 146.119 38.4259 146.119 38.2417V25.7461H151.606V38.3645C151.606 38.6408 151.622 38.8864 151.637 39.1321V39.1474C151.652 39.347 151.683 39.5312 151.714 39.7C151.729 39.8075 151.745 39.8996 151.775 39.9917C151.806 40.0992 151.837 40.2066 151.868 40.2987C151.883 40.3601 151.914 40.4369 151.929 40.4983C151.991 40.6671 152.067 40.836 152.144 40.9742C152.19 41.0509 152.237 41.1277 152.283 41.2044C152.329 41.2812 152.375 41.3579 152.436 41.4193C152.775 41.8338 153.236 42.1255 153.85 42.2943C153.881 42.3097 153.912 42.3097 153.943 42.325C154.219 42.4018 154.527 42.4478 154.865 42.4632C154.972 42.4632 155.095 42.4785 155.203 42.4785H155.28C155.372 42.4785 155.464 42.4785 155.557 42.4632C155.895 42.4478 156.202 42.4018 156.479 42.325C156.51 42.325 156.54 42.3097 156.571 42.2943C157.186 42.1255 157.662 41.8338 157.985 41.4193C158.047 41.3426 158.093 41.2658 158.139 41.2044C158.185 41.1277 158.231 41.0509 158.277 40.9742C158.354 40.8206 158.431 40.6671 158.492 40.4983C158.508 40.4369 158.538 40.3755 158.554 40.2987C158.585 40.2066 158.615 40.0992 158.646 39.9917C158.661 39.9457 158.677 39.8842 158.677 39.8382C158.692 39.7921 158.692 39.7461 158.707 39.7C158.738 39.5312 158.769 39.3316 158.784 39.1474V39.1321C158.815 38.8864 158.815 38.6255 158.815 38.3645V31.0268L163.841 25.7461H164.302Z" fill="#FFC300"/>
<path d="M158.814 38.3672C158.814 38.6435 158.799 38.8891 158.783 39.1347C158.814 38.8891 158.829 38.6435 158.814 38.3672Z" fill="#333333"/>
</svg>
